<svg xmlns="http://www.w3.org/2000/svg" xmlns:xlink="http://www.w3.org/1999/xlink" version="1.1" x="0px" y="0px" viewBox="0 0 100 125" enable-background="new 0 0 100 100" xml:space="preserve"><g><path d="M64.8,37c0-13-5.4-20.6-11.2-28.1c-1.6-2-1.8-3.2-2.3-3.2v0l0,0c0,0,0,0,0,0l0,0v0c-0.4,0.1-0.7,1.2-2.2,3.2   C43.2,16.4,37.8,24,37.8,37c0,12.3,5.4,17.2,5.6,28.1c-8.3-12-19.7-18.9-28.2-15.1c-5.7,2.5-9.2,10.2-6.1,18.7   c1.8,5,6.1,7.9,7.5,11.7c0.7,1.9,1.4,1.3,1.4,0.5c0-0.7,0.1-1.6-0.2-2.4c-5.1-15.4,9.8-22.1,19.4-12.8c2,1.9,5.1,5.5,8.6,10.7   c4.3-12.4,9.7-19.1,11.7-21.9C63.2,46.7,64.8,41.7,64.8,37z"/><path d="M83.7,50c-8.5-3.7-19.9,3.1-28.2,15.1C41.7,86.6,45.3,95,52.8,93.7c3.5-0.6,4.8-5.9,1.2-6.6c-4.5-1-3,4.7-5,3.8   c-1.4-0.6-1.6-4.6,2.5-12.6c2.8-5.4,7.7-10.2,10.2-12.6c9.7-9.1,24.5-2.6,19.4,12.8c-0.3,0.8-0.2,1.7-0.2,2.4   c0,0.8,0.7,1.4,1.4-0.5c1.4-3.8,5.7-6.7,7.5-11.7C92.9,60.2,89.4,52.5,83.7,50z"/></g><text x="0" y="115" fill="#000000" font-size="5px" font-weight="bold" font-family="'Helvetica Neue', Helvetica, Arial-Unicode, Arial, Sans-serif">Created by Lazar Nikolic</text><text x="0" y="120" fill="#000000" font-size="5px" font-weight="bold" font-family="'Helvetica Neue', Helvetica, Arial-Unicode, Arial, Sans-serif">from the Noun Project</text></svg>